<?xml version="1.0" standalone="no"?>
<!DOCTYPE svg PUBLIC "-//W3C//DTD SVG 20010904//EN"
 "http://www.w3.org/TR/2001/REC-SVG-20010904/DTD/svg10.dtd">
<svg version="1.0" xmlns="http://www.w3.org/2000/svg"
 width="1024.000000pt" height="1024.000000pt" viewBox="0 0 1024.000000 1024.000000"
 preserveAspectRatio="xMidYMid meet">

<g transform="translate(0.000000,1024.000000) scale(0.100000,-0.100000)"
fill="#000000" stroke="none">
<path d="M3128 6255 c-206 -39 -318 -148 -326 -316 -9 -179 87 -262 380 -330
256 -59 308 -85 308 -157 0 -80 -103 -130 -244 -119 -86 6 -166 35 -265 95
l-74 45 -25 -29 c-13 -16 -45 -51 -69 -78 -24 -27 -41 -52 -36 -55 225 -191
547 -240 786 -120 123 63 177 148 177 284 0 121 -50 195 -175 258 -61 30 -121
49 -286 87 -162 37 -206 55 -225 91 -22 44 2 94 59 119 117 52 283 24 405 -67
l33 -25 74 79 75 78 -38 33 c-120 107 -351 162 -534 127z"/>
<path d="M5928 6240 l-118 -5 -81 -165 c-45 -91 -94 -192 -109 -225 -15 -33
-96 -199 -179 -369 -83 -170 -151 -312 -151 -316 0 -5 203 -7 248 -2 6 1 34
49 62 107 l49 105 275 0 c209 0 277 -3 283 -12 4 -7 27 -53 49 -103 l42 -90
74 -8 c64 -7 185 -3 195 6 2 2 -42 98 -98 213 -56 115 -171 355 -255 533 -84
178 -157 327 -161 330 -4 3 -61 4 -125 1z m35 -342 c19 -40 60 -126 91 -192
32 -65 55 -120 53 -122 -2 -3 -85 -3 -184 -2 l-180 3 90 193 c50 105 92 192
94 192 1 0 17 -33 36 -72z"/>
<path d="M3992 5698 l3 -543 115 0 115 0 5 380 5 379 55 -69 c30 -39 151 -189
270 -334 118 -145 232 -285 253 -312 l38 -49 124 0 125 0 0 545 0 545 -122 0
-121 0 6 -354 c4 -195 3 -357 -2 -360 -9 -6 -102 105 -398 474 l-189 235 -142
3 -142 3 2 -543z"/>
<path d="M6772 5698 l3 -543 120 0 120 0 5 165 5 165 185 6 c166 5 192 8 253
31 128 49 200 117 237 228 59 175 -21 357 -191 438 -100 47 -145 52 -455 52
l-284 0 2 -542z m574 317 c59 -17 98 -55 114 -110 23 -78 -12 -143 -104 -193
-25 -13 -60 -17 -181 -17 l-150 0 -3 155 c-1 85 0 160 2 167 8 19 256 18 322
-2z"/>
<path d="M3558 4521 c-47 -15 -90 -53 -109 -95 -75 -166 97 -313 267 -230 l39
19 3 73 3 72 -76 0 c-68 0 -75 -2 -75 -20 0 -15 7 -20 29 -20 49 0 61 -9 61
-46 0 -28 -5 -36 -26 -44 -36 -14 -68 -12 -113 6 -93 37 -93 175 0 226 40 22
100 19 129 -7 15 -14 21 -14 39 -3 26 16 23 28 -16 51 -36 21 -117 30 -155 18z"/>
<path d="M3984 4428 c3 -50 6 -126 6 -170 0 -76 1 -78 24 -78 23 0 25 4 28 53
l3 52 41 3 c38 3 41 1 78 -51 36 -53 63 -71 92 -60 10 4 4 19 -26 60 -38 54
-43 73 -16 73 36 0 64 71 52 135 -11 59 -49 75 -180 75 l-109 0 7 -92z m204
26 c15 -10 22 -25 22 -49 0 -48 -29 -65 -107 -65 l-63 0 0 65 0 65 63 0 c40 0
70 -5 85 -16z"/>
<path d="M4490 4350 l0 -170 30 0 30 0 0 170 0 170 -30 0 -30 0 0 -170z"/>
<path d="M4790 4349 l0 -171 109 4 c91 2 114 6 138 24 36 26 73 99 73 144 0
55 -38 121 -85 147 -34 19 -55 23 -137 23 l-98 0 0 -171z m201 104 c55 -33 75
-114 41 -166 -31 -46 -52 -56 -122 -57 l-65 0 2 113 c0 61 2 115 2 120 2 15
113 7 142 -10z"/>
<path d="M5980 4444 c0 -58 3 -74 14 -74 11 0 16 15 18 53 l3 52 73 3 72 3 0
-51 c0 -44 3 -51 18 -48 10 2 17 12 16 26 0 12 -1 41 -2 65 l-2 42 -105 2
-105 2 0 -75z"/>
<path d="M6782 4445 c2 -53 6 -65 20 -65 13 0 18 11 20 46 l3 46 64 2 64 1 1
-50 c1 -39 5 -50 19 -53 15 -3 17 5 17 67 l0 71 -106 0 -105 0 3 -65z"/>
<path d="M6486 4493 c-3 -4 -6 -37 -6 -75 l0 -68 -55 0 c-41 0 -57 -4 -62 -15
-8 -24 3 -29 60 -30 l52 0 3 -57 c2 -42 7 -58 17 -58 10 0 15 16 17 58 l3 57
63 3 c54 3 62 6 62 22 0 18 -7 20 -66 20 l-66 0 4 70 c2 46 -1 71 -9 74 -6 3
-14 2 -17 -1z"/>
<path d="M5982 4223 l3 -88 100 0 100 0 3 56 c2 44 -1 58 -13 62 -12 5 -15 -2
-15 -38 l0 -45 -75 0 -75 0 0 70 c0 56 -3 70 -15 70 -13 0 -15 -14 -13 -87z"/>
<path d="M6963 4303 c-9 -3 -13 -27 -13 -69 l0 -64 -90 0 c-73 0 -90 -3 -90
-15 0 -8 3 -15 8 -15 4 -1 52 -2 107 -3 l100 -2 2 82 c1 83 -2 94 -24 86z"/>
</g>
</svg>
