<svg width="1383" height="323" viewBox="0 0 1383 323" fill="none" xmlns="http://www.w3.org/2000/svg">
<g clip-path="url(#clip0_405_2)">
<path d="M129.832 24.3129C116.511 24.3129 105.986 34.8373 105.986 48.1586V275.313C105.986 288.634 116.511 299.158 129.832 299.158H585.341C598.662 299.158 609.187 288.634 609.187 275.313V48.1586C609.187 34.8373 598.662 24.3129 585.341 24.3129H129.832Z" fill="#333333"/>
<path d="M129.832 24.3129C116.511 24.3129 105.986 34.8373 105.986 48.1586V275.313C105.986 288.634 116.511 299.158 129.832 299.158H585.341C598.662 299.158 609.187 288.634 609.187 275.313V48.1586C609.187 34.8373 598.662 24.3129 585.341 24.3129H129.832Z" fill="url(#paint0_linear_405_2)"/>
<path d="M773.493 24.3129C760.172 24.3129 749.647 34.8373 749.647 48.1586V275.313C749.647 288.634 760.172 299.158 773.493 299.158H1229C1242.32 299.158 1252.85 288.634 1252.85 275.313V48.1586C1252.85 34.8373 1242.32 24.3129 1229 24.3129H773.493Z" fill="#333333"/>
<path d="M773.493 24.3129C760.172 24.3129 749.647 34.8373 749.647 48.1586V275.313C749.647 288.634 760.172 299.158 773.493 299.158H1229C1242.32 299.158 1252.85 288.634 1252.85 275.313V48.1586C1252.85 34.8373 1242.32 24.3129 1229 24.3129H773.493Z" fill="url(#paint1_linear_405_2)"/>
<path d="M1066.08 141.04H992.48V222.02H1066.08V141.04Z" fill="white"/>
<path d="M848.88 141.04H922.48V222.02H848.88V141.04Z" fill="white"/>
<path d="M518.271 138.86H444.671V219.84H518.271V138.86Z" fill="white"/>
<path d="M371.071 138.86H297.471V219.84H371.071V138.86Z" fill="white"/>
</g>
<defs>
<linearGradient id="paint0_linear_405_2" x1="129.832" y1="24.3129" x2="148.632" y2="303.184" gradientUnits="userSpaceOnUse">
<stop stop-color="#2AF598"/>
<stop offset="1" stop-color="#009EFD"/>
</linearGradient>
<linearGradient id="paint1_linear_405_2" x1="773.493" y1="24.3129" x2="792.293" y2="303.184" gradientUnits="userSpaceOnUse">
<stop stop-color="#2AF598"/>
<stop offset="1" stop-color="#009EFD"/>
</linearGradient>
<clipPath id="clip0_405_2">
<rect width="1382.04" height="322.471" fill="white"/>
</clipPath>
</defs>
</svg>